<?xml version="1.0" encoding="utf-8"?>
<svg version="1.1" id="Layer_1"
xmlns="http://www.w3.org/2000/svg"
xmlns:xlink="http://www.w3.org/1999/xlink"
width="650px" height="250px"
xml:space="preserve">
<g id="PathID_1" transform="matrix(1.93775, 0, -0.00122955, 1.93775, 27.15, 165.4)" opacity="1">
<path style="fill:#1373B6;fill-opacity:1" d="M16.1 -36.65L31 -36.65L29.15 -14.35L42.4 -36.65L57.35 -36.65L44.9 0L35.6 0L45.05 -27.95L28.45 0L20.05 0L22.4 -27.95L12.95 0L3.65 0L16.1 -36.65" />
</g>
<g id="PathID_2" transform="matrix(1.93775, 0, -0.00122955, 1.93775, 27.15, 165.4)" opacity="1">
</g>
<g id="PathID_3" transform="matrix(1.93775, 0, -0.00122955, 1.93775, 120.8, 165.4)" opacity="1">
<path style="fill:#1373B6;fill-opacity:1" d="M18.5 -17.95L9.1 -19Q10.5 -21.5 12 -22.95Q13.55 -24.45 15.9 -25.5Q17.55 -26.3 20.15 -26.7Q22.75 -27.15 25.6 -27.15Q30.15 -27.15 32.75 -26.6Q35.35 -26.1 36.65 -24.5Q37.55 -23.35 37.6 -21.3Q37.65 -19.25 37.05 -17.35L33.05 -5.65Q32.4 -3.75 32.25 -2.7Q32.15 -1.65 32.4 0L22.85 0Q22.6 -1 22.6 -1.55L22.85 -3.25Q20.2 -1.3 17.95 -0.5Q14.85 0.6 11.3 0.6Q6.55 0.6 4.8 -1.6Q3.1 -3.8 4.2 -7Q5.25 -10.05 7.7 -12Q10.1 -13.95 15.2 -14.9Q21.35 -16.05 23.2 -16.5Q25.05 -16.95 27.2 -17.75Q27.85 -19.6 27.3 -20.35Q26.8 -21.1 24.85 -21.1Q22.35 -21.1 20.85 -20.3Q19.65 -19.65 18.5 -17.95M25.45 -12.6Q23.1 -11.85 20.65 -11.25Q17.25 -10.45 16.15 -9.65Q15 -8.8 14.65 -7.75Q14.25 -6.55 14.8 -5.8Q15.4 -5.05 17.05 -5.05Q18.75 -5.05 20.5 -5.85Q22.25 -6.7 23.25 -7.85Q24.25 -9.05 24.9 -10.95L25.45 -12.6" />
</g>
<g id="PathID_4" transform="matrix(1.93775, 0, -0.00122955, 1.93775, 120.8, 165.4)" opacity="1">
</g>
<g id="PathID_5" transform="matrix(1.93775, 0, -0.00122955, 1.93775, 187.75, 165.4)" opacity="1">
<path style="fill:#1373B6;fill-opacity:1" d="M-0.3 10.1L12.15 -26.55L21.7 -26.55L20.35 -22.6Q23.15 -25.05 25.1 -25.95Q27.75 -27.15 30.45 -27.15Q35.75 -27.15 37.25 -23.05Q38.8 -19 36.75 -13Q34.5 -6.35 30.15 -2.85Q25.8 0.6 20.95 0.6Q18.6 0.6 16.95 -0.2Q15.3 -1 14.3 -2.55L10 10.1L-0.3 10.1M17.85 -13.15Q16.75 -10 17.55 -8.5Q18.35 -7 20.35 -7Q22.1 -7 23.8 -8.45Q25.5 -9.9 26.7 -13.4Q27.8 -16.6 27.05 -18.1Q26.3 -19.65 24.55 -19.65Q22.6 -19.65 20.8 -18.1Q19 -16.6 17.85 -13.15" />
</g>
<g id="PathID_6" transform="matrix(1.93775, 0, -0.00122955, 1.93775, 187.75, 165.4)" opacity="1">
</g>
<g id="PathID_7" transform="matrix(1.93775, 0, -0.00122955, 1.93775, 253.9, 165.4)" opacity="1">
<path style="fill:#1373B6;fill-opacity:1" d="M3.8 -7.4L14.2 -8.35Q14.25 -6.55 15.1 -5.75Q15.95 -5 17.8 -5Q19.85 -5 21.3 -5.85Q22.4 -6.5 22.7 -7.45Q23.1 -8.55 22.15 -9.15Q21.45 -9.6 18.1 -10.2Q13.15 -11.1 11.35 -11.9Q9.55 -12.7 8.75 -14.55Q7.95 -16.45 8.8 -18.85Q9.7 -21.45 11.85 -23.35Q14 -25.25 17 -26.2Q20 -27.15 24.55 -27.15Q29.3 -27.15 31.3 -26.4Q33.35 -25.7 34.3 -24.15Q35.3 -22.65 35.45 -20.05L25.45 -19.1Q25.5 -20.35 24.85 -20.95Q23.9 -21.75 22.2 -21.75Q20.45 -21.75 19.45 -21.1Q18.45 -20.5 18.15 -19.65Q17.85 -18.65 18.65 -18.15Q19.5 -17.65 22.75 -17.25Q27.6 -16.7 29.75 -15.65Q31.9 -14.65 32.55 -12.75Q33.2 -10.85 32.45 -8.6Q31.65 -6.3 29.5 -4.1Q27.4 -1.95 23.95 -0.65Q20.55 0.6 15.4 0.6Q8.15 0.6 5.75 -1.45Q3.35 -3.55 3.8 -7.4" />
</g>
<g id="PathID_8" transform="matrix(1.93775, 0, -0.00122955, 1.93775, 253.9, 165.4)" opacity="1">
</g>
<g id="PathID_9" transform="matrix(1.93775, 0, -0.00122955, 1.93775, 411.2, 170.4)" opacity="1">
<path style="fill:#1373B6;fill-opacity:1" d="M16.65 -36.65L28 -36.65L15.55 0L4.2 0L16.65 -36.65" />
</g>
<g id="PathID_10" transform="matrix(1.93775, 0, -0.00122955, 1.93775, 411.2, 170.4)" opacity="1">
</g>
<g id="PathID_11" transform="matrix(1.93775, 0, -0.00122955, 1.93775, 449.85, 170.4)" opacity="1">
<path style="fill:#1373B6;fill-opacity:1" d="M6.3 -13.2Q8.4 -19.25 13.8 -23.2Q19.25 -27.15 26.25 -27.15Q34.2 -27.15 36.7 -22.5Q38.7 -18.8 36.85 -13.35Q34.8 -7.2 29.4 -3.3Q24 0.6 16.8 0.6Q10.4 0.6 7.6 -2.65Q4.1 -6.65 6.3 -13.2M16.5 -13.2Q15.3 -9.65 16.15 -7.95Q17.05 -6.3 19.2 -6.3Q21.4 -6.3 23.35 -7.95Q25.35 -9.6 26.6 -13.3Q27.8 -16.75 26.95 -18.45Q26.1 -20.15 24 -20.15Q21.75 -20.15 19.7 -18.4Q17.7 -16.7 16.5 -13.2" />
</g>
<g id="PathID_12" transform="matrix(1.93775, 0, -0.00122955, 1.93775, 449.85, 170.4)" opacity="1">
</g>
<g id="PathID_13" transform="matrix(1.93775, 0, -0.00122955, 1.93775, 516, 170.4)" opacity="1">
<path style="fill:#1373B6;fill-opacity:1" d="M13.65 -36.65L48.1 -36.65L45 -27.6L33.45 -27.6L24.1 0L12.75 0L22.1 -27.6L10.55 -27.6L13.65 -36.65" />
</g>
<g id="PathID_14" transform="matrix(1.93775, 0, -0.00122955, 1.93775, 516, 170.4)" opacity="1">
</g>
<g id="PathID_15" transform="matrix(1.30456, 0, 0, 1.30456, 371.75, 195.5)" opacity="1">
<path style="fill:#FF0000;fill-opacity:1" d="M32.1 9.85Q18.8 13.95 0 13.95Q-18.8 13.95 -32.1 9.85Q-45.4 5.75 -45.4 0Q-45.4 -5.75 -32.1 -9.85Q-18.8 -13.95 0 -13.95Q18.8 -13.95 32.1 -9.85Q45.4 -5.75 45.4 0Q45.4 5.75 32.1 9.85" />
</g>
<g id="PathID_16" transform="matrix(1.30456, 0, 0, 1.30456, 371.75, 195.5)" opacity="1">
<path style="fill:none;stroke-width:1;stroke-linecap:round;stroke-linejoin:round;stroke-miterlimit:3;stroke:#000000;stroke-opacity:1" d="M32.05 9.8Q18.75 13.9 0 13.9Q-18.8 13.9 -32.1 9.8Q-45.4 5.75 -45.4 0Q-45.4 -5.75 -32.1 -9.8Q-18.8 -13.9 0 -13.9Q18.75 -13.9 32.05 -9.8Q45.35 -5.75 45.35 0Q45.35 5.75 32.05 9.8z" />
</g>
<g id="PathID_17" transform="matrix(0.916148, 0, 0, 0.916148, 372.75, 195.4)" opacity="1">
<path style="fill:#FFFFFF;fill-opacity:1" d="M32.1 9.85Q18.8 13.95 0 13.95Q-18.8 13.95 -32.1 9.85Q-45.4 5.75 -45.4 0Q-45.4 -5.75 -32.1 -9.85Q-18.8 -13.95 0 -13.95Q18.8 -13.95 32.1 -9.85Q45.4 -5.75 45.4 0Q45.4 5.75 32.1 9.85" />
</g>
<g id="PathID_18" transform="matrix(0.916148, 0, 0, 0.916148, 372.75, 195.4)" opacity="1">
<path style="fill:none;stroke-width:1;stroke-linecap:round;stroke-linejoin:round;stroke-miterlimit:3;stroke:#000000;stroke-opacity:1" d="M32.1 9.85Q18.75 13.95 0 13.95Q-18.8 13.95 -32.1 9.85Q-45.35 5.75 -45.35 0Q-45.35 -5.75 -32.1 -9.8Q-18.8 -13.9 0 -13.9Q18.75 -13.9 32.1 -9.8Q45.35 -5.75 45.35 0Q45.35 5.75 32.1 9.85z" />
</g>
<g id="PathID_19" transform="matrix(0.466902, 0, 0, 0.466902, 372.4, 195.1)" opacity="1">
<path style="fill:#FE0000;fill-opacity:1" d="M32.1 9.85Q18.8 13.95 0 13.95Q-18.8 13.95 -32.1 9.85Q-45.4 5.75 -45.4 0Q-45.4 -5.75 -32.1 -9.85Q-18.8 -13.95 0 -13.95Q18.8 -13.95 32.1 -9.85Q45.4 -5.75 45.4 0Q45.4 5.75 32.1 9.85" />
</g>
<g id="PathID_20" transform="matrix(0.466902, 0, 0, 0.466902, 372.4, 195.1)" opacity="1">
<path style="fill:none;stroke-width:1;stroke-linecap:round;stroke-linejoin:round;stroke-miterlimit:3;stroke:#000000;stroke-opacity:1" d="M32.05 9.75Q18.75 13.9 0 13.9Q-18.75 13.9 -32.05 9.75Q-45.35 5.65 -45.35 0Q-45.35 -5.75 -32.05 -9.8Q-18.75 -14 0 -14Q18.75 -14 32.05 -9.8Q45.3 -5.75 45.3 0Q45.3 5.65 32.05 9.75z" />
</g>
<g id="PathID_21" transform="matrix(2.44828, 0, 0, 2.75657, 322.25, 28.1)" opacity="1">
<path style="fill:#FF0000;fill-opacity:1" d="M34.75 5.95Q40.75 11.9 40.75 20.35Q40.75 27.05 31.9 42.9Q27.7 50.45 23.4 57L20.35 61.6L17.35 57Q13.05 50.45 8.8 42.9Q0 27 0 20.35Q0 11.9 6 5.95Q11.95 0 20.35 0Q28.8 0 34.75 5.95M20.35 9.65Q16 9.65 12.9 12.75Q9.8 15.85 9.8 20.2Q9.8 24.6 12.9 27.7Q16 30.8 20.35 30.8Q24.75 30.8 27.85 27.7Q30.95 24.6 30.95 20.2Q30.95 15.85 27.85 12.75Q24.75 9.65 20.35 9.65" />
</g>
<g id="PathID_22" transform="matrix(2.44828, 0, 0, 2.75657, 322.25, 28.1)" opacity="1">
<path style="fill:none;stroke-width:1;stroke-linecap:round;stroke-linejoin:round;stroke-miterlimit:3;stroke:#000000;stroke-opacity:1" d="M20.35 0Q11.95 0 6 5.95Q0 11.9 0 20.35Q0 27 8.8 42.9Q13.05 50.45 17.35 57L20.35 61.6L23.4 57Q27.7 50.45 31.9 42.9Q40.75 27.05 40.75 20.35Q40.75 11.9 34.75 5.95Q28.8 0 20.35 0z" />
<path style="fill:none;stroke-width:1;stroke-linecap:round;stroke-linejoin:round;stroke-miterlimit:3;stroke:#000000;stroke-opacity:1" d="M27.85 12.75Q30.95 15.85 30.95 20.2Q30.95 24.6 27.85 27.7Q24.75 30.8 20.35 30.8Q16 30.8 12.9 27.7Q9.8 24.6 9.8 20.2Q9.8 15.85 12.9 12.75Q16 9.65 20.35 9.65Q24.75 9.65 27.85 12.75z" />
</g>
</svg>
